<svg xmlns="http://www.w3.org/2000/svg" width="485.82" height="389.08" viewBox="269.23 283.17 485.82 389.08"><defs><linearGradient id="linear0" x1="150.146" x2="149.851" y1="246.089" y2="53.525" gradientTransform="scale(3.41333)" gradientUnits="userSpaceOnUse"><stop offset="0" style="stop-color:#111721;stop-opacity:1"/><stop offset="1" style="stop-color:#2f3642;stop-opacity:1"/></linearGradient><linearGradient id="linear1" x1="155.046" x2="128.522" y1="178.882" y2="86.37" gradientTransform="scale(3.41333)" gradientUnits="userSpaceOnUse"><stop offset="0" style="stop-color:#e73134;stop-opacity:1"/><stop offset="1" style="stop-color:#ff7632;stop-opacity:1"/></linearGradient></defs><g id="surface1"><path d="M322.043 672.07c-9.203-13.574-19.734-28.39-27.379-42.77a225.66 225.66 0 0 1-22.32-141.3 243.62 243.62 0 0 1 96.547-158.754 245.03 245.03 0 0 1 182.632-42.828c58.676 9.543 122.32 45.441 157.356 94.043-1.238 1.277-11.645 7.394-14.125 9.113-10.688 7.414-21.668 14.848-32.723 21.719-3.62 2.254-8.722 2.89-13.12 5.965-.774-.059-1.165.07-1.556-.285-2.585-3.743-8.894-10.008-12.308-13.446-22.836-22.976-54.8-40.547-86.57-46.914-44.426-8.906-94.93-1.379-132.786 24.325-38.996 26.476-66.57 63.843-75.105 110.78-6.477 35.634-3.531 73.481 12.309 106.512 5.328 11.11 14.41 23.864 21.406 34.149Zm0 0" data-index="1" style="fill-rule:nonzero;fill:#000;opacity:1;visibility:visible"/><path d="M708.879 380.46c1.266 1.716 2.437 3.282 3.601 5.075 27.145 42.453 41.625 84.23 42.524 135.074 1.035 58.477-17.95 105.352-52.594 151.641-17.726-13.23-36.012-26.16-53.57-39.504 6.89-9.785 14.82-20.867 20.164-31.644 16.21-32.668 22.867-71.368 16.41-107.383-4.504-25.164-13.98-45.04-28.105-65.88-36.48 27.556-70.153 59.18-105.457 87.376a42.48 42.48 0 0 0-17-22.485c23.57-16.78 47.632-32.109 71.742-48.085 13.734-9.106 26.832-18.875 40.761-27.672.391.355.782.226 1.555.285 4.399-3.074 9.5-3.711 13.121-5.965 11.055-6.871 22.035-14.305 32.723-21.719 2.48-1.719 12.887-7.836 14.125-9.113m0 0" data-index="2" style="fill-rule:nonzero;fill:#000;fill-opacity:1;opacity:1;visibility:visible"/><path d="M551.852 515.215c6.289 19.719-2.543 41.101-20.922 50.625-18.375 9.52-40.938 4.41-53.418-12.102-12.48-16.508-11.242-39.61 2.93-54.691 14.175-15.082 37.152-17.75 54.41-6.317a42.48 42.48 0 0 1 17 22.485m0 0" data-index="3" style="fill-rule:nonzero;fill:#000;fill-opacity:1;opacity:1;visibility:visible"/></g></svg>